<mxfile host="app.diagrams.net" modified="2023-06-02T02:31:17.858Z" agent="Mozilla/5.0 (X11; Ubuntu; Linux x86_64; rv:109.0) Gecko/20100101 Firefox/113.0" etag="y7skUv-oJn9rUX4_3tvi" version="21.3.6" type="device">
  <diagram name="Page-1" id="MzHM1Ebuwn2UYsW7390A">
    <mxGraphModel dx="2607" dy="1495" grid="1" gridSize="10" guides="1" tooltips="1" connect="1" arrows="1" fold="1" page="1" pageScale="1" pageWidth="1654" pageHeight="1169" math="0" shadow="0">
      <root>
        <mxCell id="0" />
        <mxCell id="1" parent="0" />
        <mxCell id="5Oj6fqXovqbjUkjtKiVb-74" value="" style="rounded=0;whiteSpace=wrap;html=1;fillColor=#dae8fc;dashed=1;strokeWidth=3;strokeColor=#6c8ebf;fillStyle=hatch;movable=0;resizable=0;rotatable=0;deletable=0;editable=0;locked=1;connectable=0;" vertex="1" parent="1">
          <mxGeometry x="60" y="600" width="1540" height="520" as="geometry" />
        </mxCell>
        <mxCell id="5Oj6fqXovqbjUkjtKiVb-22" value="" style="rounded=0;whiteSpace=wrap;html=1;fillColor=#dae8fc;dashed=1;strokeWidth=3;strokeColor=#6c8ebf;fillStyle=hatch;" vertex="1" parent="1">
          <mxGeometry x="1190" y="160" width="390" height="280" as="geometry" />
        </mxCell>
        <mxCell id="5Oj6fqXovqbjUkjtKiVb-31" value="&lt;div&gt;&lt;font style=&quot;font-size: 16px;&quot;&gt;For each of the detected faces: Estimate the head pose angle&lt;br&gt;&lt;/font&gt;&lt;/div&gt;" style="rounded=0;whiteSpace=wrap;html=1;fillColor=#fff2cc;strokeColor=#d6b656;" vertex="1" parent="1">
          <mxGeometry x="1420" y="340" width="140" height="80" as="geometry" />
        </mxCell>
        <mxCell id="5Oj6fqXovqbjUkjtKiVb-81" value="&lt;font style=&quot;font-size: 16px;&quot;&gt;Check how long the locked face has looked away from the camera&lt;br&gt;&lt;/font&gt;" style="rounded=0;whiteSpace=wrap;html=1;fillColor=#fff2cc;strokeColor=#d6b656;" vertex="1" parent="1">
          <mxGeometry x="640" y="960" width="200" height="120" as="geometry" />
        </mxCell>
        <mxCell id="4UQebfLzVkgeTfsJnJ6F-95" value="" style="rounded=0;whiteSpace=wrap;html=1;fillColor=#F8EBFF;dashed=1;strokeWidth=3;strokeColor=#9673A6;fillStyle=hatch;" parent="1" vertex="1">
          <mxGeometry x="650" y="160" width="500" height="220" as="geometry" />
        </mxCell>
        <mxCell id="4UQebfLzVkgeTfsJnJ6F-2" value="" style="rounded=0;whiteSpace=wrap;html=1;fillColor=#dae8fc;dashed=1;strokeWidth=3;strokeColor=#6c8ebf;fillStyle=hatch;" parent="1" vertex="1">
          <mxGeometry x="60" y="160" width="320" height="280" as="geometry" />
        </mxCell>
        <mxCell id="4UQebfLzVkgeTfsJnJ6F-6" value="" style="edgeStyle=orthogonalEdgeStyle;rounded=0;orthogonalLoop=1;jettySize=auto;html=1;exitX=0.5;exitY=1;exitDx=0;exitDy=0;entryX=0.5;entryY=0;entryDx=0;entryDy=0;labelBackgroundColor=default;fontSize=15;" parent="1" source="4UQebfLzVkgeTfsJnJ6F-3" target="4UQebfLzVkgeTfsJnJ6F-5" edge="1">
          <mxGeometry relative="1" as="geometry" />
        </mxCell>
        <mxCell id="4UQebfLzVkgeTfsJnJ6F-3" value="&lt;font style=&quot;font-size: 16px;&quot;&gt;Take frame from RealSense RGB camera.&lt;br&gt;&lt;/font&gt;" style="rounded=0;whiteSpace=wrap;html=1;fillColor=#fff2cc;strokeColor=#d6b656;" parent="1" vertex="1">
          <mxGeometry x="80" y="180" width="140" height="80" as="geometry" />
        </mxCell>
        <mxCell id="4UQebfLzVkgeTfsJnJ6F-7" value="&lt;div style=&quot;font-size: 15px;&quot;&gt;&lt;font style=&quot;font-size: 15px;&quot;&gt;Repeat at 30 frames&lt;/font&gt;&lt;/div&gt;&lt;div style=&quot;font-size: 15px;&quot;&gt;&lt;font style=&quot;font-size: 15px;&quot;&gt;per second &lt;br&gt;&lt;/font&gt;&lt;/div&gt;" style="edgeStyle=orthogonalEdgeStyle;rounded=0;orthogonalLoop=1;jettySize=auto;html=1;exitX=1;exitY=0.75;exitDx=0;exitDy=0;entryX=1;entryY=0.25;entryDx=0;entryDy=0;fontSize=14;" parent="1" source="4UQebfLzVkgeTfsJnJ6F-3" target="4UQebfLzVkgeTfsJnJ6F-3" edge="1">
          <mxGeometry x="-0.3333" y="-50" relative="1" as="geometry">
            <Array as="points">
              <mxPoint x="260" y="240" />
              <mxPoint x="260" y="200" />
            </Array>
            <mxPoint x="-10" y="30" as="offset" />
          </mxGeometry>
        </mxCell>
        <mxCell id="4UQebfLzVkgeTfsJnJ6F-11" value="" style="edgeStyle=orthogonalEdgeStyle;rounded=0;orthogonalLoop=1;jettySize=auto;html=1;exitX=1;exitY=0.5;exitDx=0;exitDy=0;entryX=0;entryY=0.5;entryDx=0;entryDy=0;fillColor=#f8cecc;strokeColor=#b85450;strokeWidth=4;" parent="1" source="4UQebfLzVkgeTfsJnJ6F-5" target="4UQebfLzVkgeTfsJnJ6F-10" edge="1">
          <mxGeometry relative="1" as="geometry">
            <Array as="points">
              <mxPoint x="330" y="380" />
              <mxPoint x="330" y="380" />
            </Array>
          </mxGeometry>
        </mxCell>
        <mxCell id="4UQebfLzVkgeTfsJnJ6F-5" value="&lt;font style=&quot;font-size: 16px;&quot;&gt;Encode frame for JSON serialisation&lt;br&gt;&lt;/font&gt;" style="rounded=0;whiteSpace=wrap;html=1;fillColor=#fff2cc;strokeColor=#d6b656;" parent="1" vertex="1">
          <mxGeometry x="80" y="340" width="140" height="80" as="geometry" />
        </mxCell>
        <mxCell id="4UQebfLzVkgeTfsJnJ6F-10" value="&lt;div style=&quot;font-size: 24px;&quot;&gt;&lt;font style=&quot;font-size: 24px;&quot;&gt;image_feed&lt;/font&gt;&lt;/div&gt;&lt;div style=&quot;font-size: 24px;&quot;&gt;&lt;font style=&quot;font-size: 24px;&quot;&gt;topic&lt;font style=&quot;font-size: 24px;&quot;&gt;&lt;br&gt;&lt;/font&gt;&lt;/font&gt;&lt;/div&gt;" style="rounded=0;whiteSpace=wrap;html=1;fillColor=#f8cecc;strokeColor=#b85450;" parent="1" vertex="1">
          <mxGeometry x="440" y="350" width="180" height="60" as="geometry" />
        </mxCell>
        <mxCell id="4UQebfLzVkgeTfsJnJ6F-25" value="&lt;font style=&quot;font-size: 20px;&quot;&gt;RealSense Publisher Node&lt;br&gt;&lt;/font&gt;" style="text;html=1;strokeColor=none;fillColor=none;align=left;verticalAlign=bottom;whiteSpace=wrap;rounded=0;fontColor=#6C8EBF;" parent="1" vertex="1">
          <mxGeometry x="60" y="130" width="260" height="30" as="geometry" />
        </mxCell>
        <mxCell id="4UQebfLzVkgeTfsJnJ6F-96" value="&lt;div&gt;&lt;font style=&quot;font-size: 20px;&quot; color=&quot;#9673a6&quot;&gt;Nodes for Human Operator / Debug Use&lt;br&gt;&lt;/font&gt;&lt;/div&gt;" style="text;html=1;strokeColor=none;fillColor=none;align=left;verticalAlign=bottom;whiteSpace=wrap;rounded=0;fontColor=#6C8EBF;" parent="1" vertex="1">
          <mxGeometry x="650" y="380" width="380" height="30" as="geometry" />
        </mxCell>
        <mxCell id="4UQebfLzVkgeTfsJnJ6F-100" value="&lt;font style=&quot;font-size: 60px;&quot;&gt;&lt;b style=&quot;&quot;&gt;ATTENTION SUB-SYSTEM&lt;/b&gt;&lt;font style=&quot;font-size: 60px;&quot;&gt;&lt;br&gt;&lt;/font&gt;&lt;/font&gt;" style="text;html=1;strokeColor=none;fillColor=none;align=center;verticalAlign=middle;whiteSpace=wrap;rounded=0;" parent="1" vertex="1">
          <mxGeometry x="10" y="20" width="770" height="80" as="geometry" />
        </mxCell>
        <mxCell id="4UQebfLzVkgeTfsJnJ6F-103" value="&lt;font style=&quot;font-size: 48px;&quot; color=&quot;#808080&quot;&gt;&lt;b style=&quot;&quot;&gt;JACOB TOLLER&lt;/b&gt;&lt;font style=&quot;font-size: 48px;&quot;&gt;&lt;br&gt;&lt;/font&gt;&lt;/font&gt;" style="text;html=1;strokeColor=none;fillColor=none;align=center;verticalAlign=middle;whiteSpace=wrap;rounded=0;" parent="1" vertex="1">
          <mxGeometry x="1220" y="20" width="410" height="70" as="geometry" />
        </mxCell>
        <mxCell id="5Oj6fqXovqbjUkjtKiVb-12" style="edgeStyle=orthogonalEdgeStyle;rounded=0;orthogonalLoop=1;jettySize=auto;html=1;exitX=0.5;exitY=1;exitDx=0;exitDy=0;entryX=0.5;entryY=0;entryDx=0;entryDy=0;" edge="1" parent="1" source="5Oj6fqXovqbjUkjtKiVb-5" target="5Oj6fqXovqbjUkjtKiVb-11">
          <mxGeometry relative="1" as="geometry" />
        </mxCell>
        <mxCell id="5Oj6fqXovqbjUkjtKiVb-37" value="&lt;div&gt;&lt;font style=&quot;font-size: 15px;&quot;&gt;Continue if not &lt;br&gt;&lt;/font&gt;&lt;/div&gt;&lt;div&gt;&lt;font style=&quot;font-size: 15px;&quot;&gt;from self&lt;/font&gt;&lt;/div&gt;" style="edgeLabel;html=1;align=center;verticalAlign=middle;resizable=0;points=[];" vertex="1" connectable="0" parent="5Oj6fqXovqbjUkjtKiVb-12">
          <mxGeometry x="0.0401" y="-2" relative="1" as="geometry">
            <mxPoint x="2" y="-4" as="offset" />
          </mxGeometry>
        </mxCell>
        <mxCell id="5Oj6fqXovqbjUkjtKiVb-5" value="&lt;font style=&quot;font-size: 16px;&quot;&gt;Check that&amp;nbsp; the message didn&#39;t come from itself&lt;br&gt;&lt;/font&gt;" style="rounded=0;whiteSpace=wrap;html=1;fillColor=#fff2cc;strokeColor=#d6b656;" vertex="1" parent="1">
          <mxGeometry x="99.95" y="620" width="140" height="80" as="geometry" />
        </mxCell>
        <mxCell id="5Oj6fqXovqbjUkjtKiVb-9" value="&lt;div&gt;Discard message &lt;br&gt;&lt;/div&gt;&lt;div&gt;if from self&lt;br&gt;&lt;/div&gt;" style="edgeStyle=orthogonalEdgeStyle;rounded=0;orthogonalLoop=1;jettySize=auto;html=1;exitX=0;exitY=0.5;exitDx=0;exitDy=0;labelBackgroundColor=default;fontSize=15;entryX=0.5;entryY=-0.016;entryDx=0;entryDy=0;entryPerimeter=0;" edge="1" parent="1" target="5Oj6fqXovqbjUkjtKiVb-10" source="5Oj6fqXovqbjUkjtKiVb-5">
          <mxGeometry x="0.7132" relative="1" as="geometry">
            <mxPoint x="219.95" y="1165" as="targetPoint" />
            <mxPoint as="offset" />
            <mxPoint x="289.95" y="1070" as="sourcePoint" />
            <Array as="points">
              <mxPoint x="79.95" y="660" />
              <mxPoint x="79.95" y="880" />
              <mxPoint x="169.95" y="880" />
            </Array>
          </mxGeometry>
        </mxCell>
        <mxCell id="5Oj6fqXovqbjUkjtKiVb-10" value="" style="html=1;verticalLabelPosition=bottom;align=center;labelBackgroundColor=#ffffff;verticalAlign=top;strokeWidth=4;strokeColor=#000000;shadow=0;dashed=0;shape=mxgraph.ios7.icons.trashcan;perimeterSpacing=2;" vertex="1" parent="1">
          <mxGeometry x="139.95" y="1020" width="60" height="60" as="geometry" />
        </mxCell>
        <mxCell id="5Oj6fqXovqbjUkjtKiVb-11" value="&lt;font style=&quot;font-size: 16px;&quot;&gt;Send request to detection service&lt;br&gt;&lt;/font&gt;" style="rounded=0;whiteSpace=wrap;html=1;fillColor=#fff2cc;strokeColor=#d6b656;" vertex="1" parent="1">
          <mxGeometry x="99.95" y="780" width="140" height="80" as="geometry" />
        </mxCell>
        <mxCell id="5Oj6fqXovqbjUkjtKiVb-13" value="&lt;font style=&quot;font-size: 24px;&quot;&gt;detection_service&lt;br&gt;&lt;/font&gt;" style="rounded=0;whiteSpace=wrap;html=1;fillColor=#d5e8d4;strokeColor=#82B366;" vertex="1" parent="1">
          <mxGeometry x="1265" y="500" width="240" height="60" as="geometry" />
        </mxCell>
        <mxCell id="5Oj6fqXovqbjUkjtKiVb-30" style="edgeStyle=orthogonalEdgeStyle;rounded=0;orthogonalLoop=1;jettySize=auto;html=1;exitX=1;exitY=0.5;exitDx=0;exitDy=0;entryX=0;entryY=0.5;entryDx=0;entryDy=0;" edge="1" parent="1" source="5Oj6fqXovqbjUkjtKiVb-24" target="5Oj6fqXovqbjUkjtKiVb-29">
          <mxGeometry relative="1" as="geometry" />
        </mxCell>
        <mxCell id="5Oj6fqXovqbjUkjtKiVb-24" value="&lt;div&gt;&lt;font style=&quot;font-size: 16px;&quot;&gt;Decode frame for &lt;br&gt;&lt;/font&gt;&lt;/div&gt;&lt;div&gt;&lt;font style=&quot;font-size: 16px;&quot;&gt;processing&lt;br&gt;&lt;/font&gt;&lt;/div&gt;" style="rounded=0;whiteSpace=wrap;html=1;fillColor=#fff2cc;strokeColor=#d6b656;" vertex="1" parent="1">
          <mxGeometry x="1210" y="340" width="130" height="80" as="geometry" />
        </mxCell>
        <mxCell id="5Oj6fqXovqbjUkjtKiVb-27" value="&lt;font style=&quot;font-size: 20px;&quot;&gt;Detector Server Node&lt;br&gt;&lt;/font&gt;" style="text;html=1;strokeColor=none;fillColor=none;align=left;verticalAlign=bottom;whiteSpace=wrap;rounded=0;fontColor=#6C8EBF;" vertex="1" parent="1">
          <mxGeometry x="1190" y="130" width="260" height="30" as="geometry" />
        </mxCell>
        <mxCell id="5Oj6fqXovqbjUkjtKiVb-106" style="edgeStyle=orthogonalEdgeStyle;rounded=0;orthogonalLoop=1;jettySize=auto;html=1;exitX=0.5;exitY=1;exitDx=0;exitDy=0;entryX=0.5;entryY=0;entryDx=0;entryDy=0;" edge="1" parent="1" source="5Oj6fqXovqbjUkjtKiVb-29" target="5Oj6fqXovqbjUkjtKiVb-31">
          <mxGeometry relative="1" as="geometry" />
        </mxCell>
        <mxCell id="5Oj6fqXovqbjUkjtKiVb-29" value="&lt;div&gt;&lt;font style=&quot;font-size: 16px;&quot;&gt;Detect faces in the frame&lt;br&gt;&lt;/font&gt;&lt;/div&gt;" style="rounded=0;whiteSpace=wrap;html=1;fillColor=#fff2cc;strokeColor=#d6b656;" vertex="1" parent="1">
          <mxGeometry x="1420" y="180" width="140" height="80" as="geometry" />
        </mxCell>
        <mxCell id="5Oj6fqXovqbjUkjtKiVb-34" style="edgeStyle=orthogonalEdgeStyle;rounded=0;orthogonalLoop=1;jettySize=auto;html=1;exitX=0.5;exitY=1;exitDx=0;exitDy=0;entryX=0.5;entryY=0;entryDx=0;entryDy=0;" edge="1" parent="1" source="5Oj6fqXovqbjUkjtKiVb-33" target="5Oj6fqXovqbjUkjtKiVb-24">
          <mxGeometry relative="1" as="geometry" />
        </mxCell>
        <mxCell id="5Oj6fqXovqbjUkjtKiVb-33" value="&lt;div&gt;&lt;font style=&quot;font-size: 16px;&quot;&gt;Initialise the detection models&lt;br&gt;&lt;/font&gt;&lt;/div&gt;" style="rounded=0;whiteSpace=wrap;html=1;fillColor=#fff2cc;strokeColor=#d6b656;" vertex="1" parent="1">
          <mxGeometry x="1210" y="180" width="130" height="80" as="geometry" />
        </mxCell>
        <mxCell id="5Oj6fqXovqbjUkjtKiVb-72" style="edgeStyle=orthogonalEdgeStyle;rounded=0;orthogonalLoop=1;jettySize=auto;html=1;entryX=0;entryY=0.5;entryDx=0;entryDy=0;fillColor=#d5e8d4;strokeColor=#82B366;strokeWidth=4;exitX=0.75;exitY=1;exitDx=0;exitDy=0;" edge="1" parent="1" source="5Oj6fqXovqbjUkjtKiVb-13" target="5Oj6fqXovqbjUkjtKiVb-77">
          <mxGeometry relative="1" as="geometry">
            <mxPoint x="1790" y="260" as="sourcePoint" />
            <mxPoint x="2155" y="260" as="targetPoint" />
            <Array as="points">
              <mxPoint x="1445" y="670" />
              <mxPoint x="290" y="670" />
              <mxPoint x="290" y="820" />
            </Array>
          </mxGeometry>
        </mxCell>
        <mxCell id="5Oj6fqXovqbjUkjtKiVb-82" style="edgeStyle=orthogonalEdgeStyle;rounded=0;orthogonalLoop=1;jettySize=auto;html=1;exitX=0.5;exitY=1;exitDx=0;exitDy=0;entryX=0.5;entryY=0;entryDx=0;entryDy=0;" edge="1" parent="1" source="5Oj6fqXovqbjUkjtKiVb-77" target="5Oj6fqXovqbjUkjtKiVb-78">
          <mxGeometry relative="1" as="geometry" />
        </mxCell>
        <mxCell id="5Oj6fqXovqbjUkjtKiVb-77" value="&lt;font style=&quot;font-size: 16px;&quot;&gt;Recieve reply from detection service&lt;br&gt;&lt;/font&gt;" style="rounded=0;whiteSpace=wrap;html=1;fillColor=#fff2cc;strokeColor=#d6b656;" vertex="1" parent="1">
          <mxGeometry x="320" y="780" width="140" height="80" as="geometry" />
        </mxCell>
        <mxCell id="5Oj6fqXovqbjUkjtKiVb-83" style="edgeStyle=orthogonalEdgeStyle;rounded=0;orthogonalLoop=1;jettySize=auto;html=1;exitX=1;exitY=0.75;exitDx=0;exitDy=0;entryX=0;entryY=0.5;entryDx=0;entryDy=0;" edge="1" parent="1" source="5Oj6fqXovqbjUkjtKiVb-78" target="5Oj6fqXovqbjUkjtKiVb-81">
          <mxGeometry relative="1" as="geometry" />
        </mxCell>
        <mxCell id="5Oj6fqXovqbjUkjtKiVb-85" value="&lt;div style=&quot;font-size: 15px;&quot;&gt;&lt;font style=&quot;font-size: 15px;&quot;&gt;Currently locked&lt;/font&gt;&lt;/div&gt;&lt;div style=&quot;font-size: 15px;&quot;&gt;&lt;font style=&quot;font-size: 15px;&quot;&gt;&amp;nbsp;onto a face&lt;/font&gt;&lt;/div&gt;" style="edgeLabel;html=1;align=center;verticalAlign=middle;resizable=0;points=[];" vertex="1" connectable="0" parent="5Oj6fqXovqbjUkjtKiVb-83">
          <mxGeometry x="0.2833" y="2" relative="1" as="geometry">
            <mxPoint x="-2" y="-29" as="offset" />
          </mxGeometry>
        </mxCell>
        <mxCell id="5Oj6fqXovqbjUkjtKiVb-84" value="&lt;div style=&quot;font-size: 15px;&quot;&gt;&lt;font style=&quot;font-size: 15px;&quot;&gt;Not currently locked&lt;/font&gt;&lt;/div&gt;&lt;div style=&quot;font-size: 15px;&quot;&gt;&lt;font style=&quot;font-size: 15px;&quot;&gt;onto a face&lt;font style=&quot;font-size: 15px;&quot;&gt;&lt;br&gt;&lt;/font&gt;&lt;/font&gt;&lt;/div&gt;" style="edgeStyle=orthogonalEdgeStyle;rounded=0;orthogonalLoop=1;jettySize=auto;html=1;exitX=1;exitY=0.25;exitDx=0;exitDy=0;entryX=0;entryY=0.5;entryDx=0;entryDy=0;" edge="1" parent="1" source="5Oj6fqXovqbjUkjtKiVb-78" target="5Oj6fqXovqbjUkjtKiVb-80">
          <mxGeometry relative="1" as="geometry">
            <mxPoint as="offset" />
          </mxGeometry>
        </mxCell>
        <mxCell id="5Oj6fqXovqbjUkjtKiVb-78" value="&lt;font style=&quot;font-size: 16px;&quot;&gt;Associate detections to tracked faces from previous frame&lt;br&gt;&lt;/font&gt;" style="rounded=0;whiteSpace=wrap;html=1;fillColor=#fff2cc;strokeColor=#d6b656;" vertex="1" parent="1">
          <mxGeometry x="320" y="900" width="140" height="80" as="geometry" />
        </mxCell>
        <mxCell id="5Oj6fqXovqbjUkjtKiVb-89" value="&lt;div&gt;&lt;font style=&quot;font-size: 15px;&quot;&gt;If one of the faces passes &lt;br&gt;&lt;/font&gt;&lt;/div&gt;&lt;div&gt;&lt;font style=&quot;font-size: 15px;&quot;&gt;required duration for lock&lt;/font&gt;&lt;/div&gt;" style="edgeStyle=orthogonalEdgeStyle;rounded=0;orthogonalLoop=1;jettySize=auto;html=1;exitX=1;exitY=0.5;exitDx=0;exitDy=0;entryX=0;entryY=0.5;entryDx=0;entryDy=0;" edge="1" parent="1" source="5Oj6fqXovqbjUkjtKiVb-80" target="5Oj6fqXovqbjUkjtKiVb-88">
          <mxGeometry y="-40" relative="1" as="geometry">
            <mxPoint as="offset" />
          </mxGeometry>
        </mxCell>
        <mxCell id="5Oj6fqXovqbjUkjtKiVb-80" value="&lt;font style=&quot;font-size: 16px;&quot;&gt;For each of the tracked faces: Check how long each of the faces have been looking at the camera&lt;br&gt;&lt;/font&gt;" style="rounded=0;whiteSpace=wrap;html=1;fillColor=#fff2cc;strokeColor=#d6b656;" vertex="1" parent="1">
          <mxGeometry x="640" y="800" width="200" height="120" as="geometry" />
        </mxCell>
        <mxCell id="5Oj6fqXovqbjUkjtKiVb-96" style="edgeStyle=orthogonalEdgeStyle;rounded=0;orthogonalLoop=1;jettySize=auto;html=1;exitX=1;exitY=0.5;exitDx=0;exitDy=0;entryX=0;entryY=0.75;entryDx=0;entryDy=0;" edge="1" parent="1" source="5Oj6fqXovqbjUkjtKiVb-86" target="5Oj6fqXovqbjUkjtKiVb-94">
          <mxGeometry relative="1" as="geometry" />
        </mxCell>
        <mxCell id="5Oj6fqXovqbjUkjtKiVb-86" value="&lt;font style=&quot;font-size: 16px;&quot;&gt;Remove facial lock&lt;br&gt;&lt;/font&gt;" style="rounded=0;whiteSpace=wrap;html=1;fillColor=#fff2cc;strokeColor=#d6b656;" vertex="1" parent="1">
          <mxGeometry x="1040" y="980" width="140" height="80" as="geometry" />
        </mxCell>
        <mxCell id="5Oj6fqXovqbjUkjtKiVb-95" style="edgeStyle=orthogonalEdgeStyle;rounded=0;orthogonalLoop=1;jettySize=auto;html=1;exitX=1;exitY=0.5;exitDx=0;exitDy=0;entryX=0;entryY=0.25;entryDx=0;entryDy=0;" edge="1" parent="1" source="5Oj6fqXovqbjUkjtKiVb-88" target="5Oj6fqXovqbjUkjtKiVb-94">
          <mxGeometry relative="1" as="geometry" />
        </mxCell>
        <mxCell id="5Oj6fqXovqbjUkjtKiVb-88" value="&lt;font style=&quot;font-size: 16px;&quot;&gt;Lock onto face looking at camera&lt;br&gt;&lt;/font&gt;" style="rounded=0;whiteSpace=wrap;html=1;fillColor=#fff2cc;strokeColor=#d6b656;" vertex="1" parent="1">
          <mxGeometry x="1040" y="820" width="140" height="80" as="geometry" />
        </mxCell>
        <mxCell id="5Oj6fqXovqbjUkjtKiVb-91" style="edgeStyle=orthogonalEdgeStyle;rounded=0;orthogonalLoop=1;jettySize=auto;html=1;entryX=0.5;entryY=1;entryDx=0;entryDy=0;exitX=0.5;exitY=1;exitDx=0;exitDy=0;" edge="1" parent="1" source="5Oj6fqXovqbjUkjtKiVb-78" target="5Oj6fqXovqbjUkjtKiVb-86">
          <mxGeometry relative="1" as="geometry">
            <mxPoint x="1670" y="410" as="sourcePoint" />
            <mxPoint x="1790" y="810" as="targetPoint" />
            <Array as="points">
              <mxPoint x="390" y="1100" />
              <mxPoint x="1110" y="1100" />
            </Array>
          </mxGeometry>
        </mxCell>
        <mxCell id="5Oj6fqXovqbjUkjtKiVb-92" value="&lt;div&gt;&lt;font style=&quot;font-size: 15px;&quot;&gt;If locked face no-longer&lt;/font&gt;&lt;/div&gt;&lt;div&gt;&lt;font style=&quot;font-size: 15px;&quot;&gt;&amp;nbsp;able to be tracked&lt;/font&gt;&lt;/div&gt;" style="edgeLabel;html=1;align=center;verticalAlign=middle;resizable=0;points=[];" vertex="1" connectable="0" parent="5Oj6fqXovqbjUkjtKiVb-91">
          <mxGeometry x="0.1115" relative="1" as="geometry">
            <mxPoint x="-369" y="-55" as="offset" />
          </mxGeometry>
        </mxCell>
        <mxCell id="5Oj6fqXovqbjUkjtKiVb-93" value="&lt;div&gt;&lt;font style=&quot;font-size: 15px;&quot;&gt;If the locked face passes &lt;br&gt;&lt;/font&gt;&lt;/div&gt;&lt;div&gt;&lt;font style=&quot;font-size: 15px;&quot;&gt;required duration for unlock&lt;/font&gt;&lt;/div&gt;" style="edgeStyle=orthogonalEdgeStyle;rounded=0;orthogonalLoop=1;jettySize=auto;html=1;exitX=1;exitY=0.5;exitDx=0;exitDy=0;entryX=0;entryY=0.5;entryDx=0;entryDy=0;" edge="1" parent="1" source="5Oj6fqXovqbjUkjtKiVb-81" target="5Oj6fqXovqbjUkjtKiVb-86">
          <mxGeometry y="-30" relative="1" as="geometry">
            <mxPoint x="1720" y="670" as="sourcePoint" />
            <mxPoint x="1720" y="750" as="targetPoint" />
            <mxPoint as="offset" />
          </mxGeometry>
        </mxCell>
        <mxCell id="5Oj6fqXovqbjUkjtKiVb-98" style="edgeStyle=orthogonalEdgeStyle;rounded=0;orthogonalLoop=1;jettySize=auto;html=1;exitX=1;exitY=0.5;exitDx=0;exitDy=0;entryX=0;entryY=0.5;entryDx=0;entryDy=0;" edge="1" parent="1" source="5Oj6fqXovqbjUkjtKiVb-94" target="5Oj6fqXovqbjUkjtKiVb-97">
          <mxGeometry relative="1" as="geometry" />
        </mxCell>
        <mxCell id="5Oj6fqXovqbjUkjtKiVb-94" value="&lt;font style=&quot;font-size: 16px;&quot;&gt;Draw bounding boxes &amp;amp; lock-on information ontop of frame&lt;br&gt;&lt;/font&gt;" style="rounded=0;whiteSpace=wrap;html=1;fillColor=#fff2cc;strokeColor=#d6b656;" vertex="1" parent="1">
          <mxGeometry x="1260" y="900" width="140" height="80" as="geometry" />
        </mxCell>
        <mxCell id="5Oj6fqXovqbjUkjtKiVb-97" value="&lt;font style=&quot;font-size: 16px;&quot;&gt;Encode annotated frame for JSON&lt;br&gt;&lt;/font&gt;" style="rounded=0;whiteSpace=wrap;html=1;fillColor=#fff2cc;strokeColor=#d6b656;" vertex="1" parent="1">
          <mxGeometry x="1440" y="900" width="140" height="80" as="geometry" />
        </mxCell>
        <mxCell id="5Oj6fqXovqbjUkjtKiVb-99" style="edgeStyle=orthogonalEdgeStyle;rounded=0;orthogonalLoop=1;jettySize=auto;html=1;fillColor=#d5e8d4;strokeColor=#82B366;strokeWidth=4;exitX=0.25;exitY=0;exitDx=0;exitDy=0;entryX=0;entryY=0.5;entryDx=0;entryDy=0;" edge="1" parent="1" source="5Oj6fqXovqbjUkjtKiVb-13" target="5Oj6fqXovqbjUkjtKiVb-24">
          <mxGeometry relative="1" as="geometry">
            <mxPoint x="950" y="469.17" as="sourcePoint" />
            <mxPoint x="1170" y="210" as="targetPoint" />
            <Array as="points">
              <mxPoint x="1325" y="469" />
              <mxPoint x="1170" y="469" />
              <mxPoint x="1170" y="380" />
            </Array>
          </mxGeometry>
        </mxCell>
        <mxCell id="5Oj6fqXovqbjUkjtKiVb-100" style="edgeStyle=orthogonalEdgeStyle;rounded=0;orthogonalLoop=1;jettySize=auto;html=1;entryX=0.75;entryY=0;entryDx=0;entryDy=0;fillColor=#d5e8d4;strokeColor=#82B366;strokeWidth=4;exitX=1;exitY=0.5;exitDx=0;exitDy=0;" edge="1" parent="1" source="5Oj6fqXovqbjUkjtKiVb-31" target="5Oj6fqXovqbjUkjtKiVb-13">
          <mxGeometry relative="1" as="geometry">
            <mxPoint x="930" y="538.5699999999999" as="sourcePoint" />
            <mxPoint x="1295" y="538.5699999999999" as="targetPoint" />
            <Array as="points">
              <mxPoint x="1600" y="380" />
              <mxPoint x="1600" y="470" />
              <mxPoint x="1445" y="470" />
            </Array>
          </mxGeometry>
        </mxCell>
        <mxCell id="5Oj6fqXovqbjUkjtKiVb-102" style="edgeStyle=orthogonalEdgeStyle;rounded=0;orthogonalLoop=1;jettySize=auto;html=1;fillColor=#d5e8d4;strokeColor=#82B366;strokeWidth=4;exitX=1;exitY=0.5;exitDx=0;exitDy=0;entryX=0.25;entryY=1;entryDx=0;entryDy=0;" edge="1" parent="1" source="5Oj6fqXovqbjUkjtKiVb-11" target="5Oj6fqXovqbjUkjtKiVb-13">
          <mxGeometry relative="1" as="geometry">
            <mxPoint x="510" y="700" as="sourcePoint" />
            <mxPoint x="1050" y="540" as="targetPoint" />
            <Array as="points">
              <mxPoint x="270" y="820" />
              <mxPoint x="270" y="650" />
              <mxPoint x="1325" y="650" />
            </Array>
          </mxGeometry>
        </mxCell>
        <mxCell id="5Oj6fqXovqbjUkjtKiVb-104" value="&lt;div&gt;&lt;font style=&quot;font-size: 19px;&quot;&gt;Focus Tracker Node&lt;/font&gt;&lt;/div&gt;" style="text;html=1;strokeColor=none;fillColor=none;align=left;verticalAlign=bottom;whiteSpace=wrap;rounded=0;fontColor=#6C8EBF;rotation=-90;" vertex="1" parent="1">
          <mxGeometry x="-110" y="950" width="310" height="30" as="geometry" />
        </mxCell>
        <mxCell id="5Oj6fqXovqbjUkjtKiVb-108" value="" style="edgeStyle=orthogonalEdgeStyle;rounded=0;orthogonalLoop=1;jettySize=auto;html=1;exitX=0.25;exitY=1;exitDx=0;exitDy=0;entryX=0.5;entryY=0;entryDx=0;entryDy=0;fillColor=#f8cecc;strokeColor=#b85450;strokeWidth=4;" edge="1" parent="1" source="4UQebfLzVkgeTfsJnJ6F-10" target="5Oj6fqXovqbjUkjtKiVb-5">
          <mxGeometry relative="1" as="geometry">
            <mxPoint x="110" y="515" as="sourcePoint" />
            <mxPoint x="730" y="575" as="targetPoint" />
            <Array as="points">
              <mxPoint x="485" y="550" />
              <mxPoint x="170" y="550" />
            </Array>
          </mxGeometry>
        </mxCell>
        <mxCell id="5Oj6fqXovqbjUkjtKiVb-109" value="" style="edgeStyle=orthogonalEdgeStyle;rounded=0;orthogonalLoop=1;jettySize=auto;html=1;exitX=0.5;exitY=0;exitDx=0;exitDy=0;fillColor=#f8cecc;strokeColor=#b85450;strokeWidth=4;entryX=0.75;entryY=1;entryDx=0;entryDy=0;" edge="1" parent="1" source="5Oj6fqXovqbjUkjtKiVb-97" target="4UQebfLzVkgeTfsJnJ6F-10">
          <mxGeometry relative="1" as="geometry">
            <mxPoint x="1205" y="610" as="sourcePoint" />
            <mxPoint x="890" y="540" as="targetPoint" />
            <Array as="points">
              <mxPoint x="1510" y="720" />
              <mxPoint x="575" y="720" />
              <mxPoint x="575" y="680" />
              <mxPoint x="600" y="680" />
              <mxPoint x="600" y="640" />
              <mxPoint x="575" y="640" />
            </Array>
          </mxGeometry>
        </mxCell>
        <mxCell id="5Oj6fqXovqbjUkjtKiVb-110" value="" style="rounded=0;whiteSpace=wrap;html=1;fillColor=#dae8fc;dashed=1;strokeWidth=3;strokeColor=#6c8ebf;fillStyle=hatch;" vertex="1" parent="1">
          <mxGeometry x="680" y="190" width="440" height="120" as="geometry" />
        </mxCell>
        <mxCell id="5Oj6fqXovqbjUkjtKiVb-111" value="&lt;font style=&quot;font-size: 20px;&quot;&gt;Image Feed Display Node&lt;br&gt;&lt;/font&gt;" style="text;html=1;strokeColor=none;fillColor=none;align=left;verticalAlign=bottom;whiteSpace=wrap;rounded=0;fontColor=#6C8EBF;" vertex="1" parent="1">
          <mxGeometry x="680" y="160" width="260" height="30" as="geometry" />
        </mxCell>
        <mxCell id="5Oj6fqXovqbjUkjtKiVb-118" style="edgeStyle=orthogonalEdgeStyle;rounded=0;orthogonalLoop=1;jettySize=auto;html=1;exitX=1;exitY=0.5;exitDx=0;exitDy=0;entryX=0;entryY=0.5;entryDx=0;entryDy=0;" edge="1" parent="1" source="5Oj6fqXovqbjUkjtKiVb-112" target="5Oj6fqXovqbjUkjtKiVb-113">
          <mxGeometry relative="1" as="geometry" />
        </mxCell>
        <mxCell id="5Oj6fqXovqbjUkjtKiVb-112" value="&lt;font style=&quot;font-size: 16px;&quot;&gt;Decode the frame for processing, check message source&lt;br&gt;&lt;/font&gt;" style="rounded=0;whiteSpace=wrap;html=1;fillColor=#fff2cc;strokeColor=#d6b656;" vertex="1" parent="1">
          <mxGeometry x="700" y="210" width="160" height="80" as="geometry" />
        </mxCell>
        <mxCell id="5Oj6fqXovqbjUkjtKiVb-113" value="&lt;font style=&quot;font-size: 16px;&quot;&gt;Display the frame to a window, per unique source&lt;br&gt;&lt;/font&gt;" style="rounded=0;whiteSpace=wrap;html=1;fillColor=#fff2cc;strokeColor=#d6b656;" vertex="1" parent="1">
          <mxGeometry x="940" y="210" width="160" height="80" as="geometry" />
        </mxCell>
        <mxCell id="5Oj6fqXovqbjUkjtKiVb-120" value="" style="edgeStyle=orthogonalEdgeStyle;rounded=0;orthogonalLoop=1;jettySize=auto;html=1;exitX=0.5;exitY=0;exitDx=0;exitDy=0;entryX=0;entryY=0.5;entryDx=0;entryDy=0;fillColor=#f8cecc;strokeColor=#b85450;strokeWidth=4;" edge="1" parent="1" source="4UQebfLzVkgeTfsJnJ6F-10" target="5Oj6fqXovqbjUkjtKiVb-112">
          <mxGeometry relative="1" as="geometry">
            <mxPoint x="390" y="240" as="sourcePoint" />
            <mxPoint x="610" y="240" as="targetPoint" />
            <Array as="points">
              <mxPoint x="530" y="250" />
            </Array>
          </mxGeometry>
        </mxCell>
        <mxCell id="5Oj6fqXovqbjUkjtKiVb-121" value="&lt;div style=&quot;font-size: 19px;&quot;&gt;&lt;font style=&quot;font-size: 19px;&quot;&gt;All images sent in the &#39;image_feed&#39; topic are encoded&lt;/font&gt;&lt;/div&gt;&lt;div style=&quot;font-size: 19px;&quot;&gt;&lt;font style=&quot;font-size: 19px;&quot;&gt;in JPEG format, then serialised in base64 &lt;br style=&quot;font-size: 19px;&quot;&gt;&lt;/font&gt;&lt;/div&gt;&lt;div style=&quot;font-size: 19px;&quot;&gt;&lt;font style=&quot;font-size: 19px;&quot;&gt;format for transmission via JSON&lt;font style=&quot;font-size: 19px;&quot;&gt;&lt;br style=&quot;font-size: 19px;&quot;&gt;&lt;/font&gt;&lt;/font&gt;&lt;/div&gt;" style="edgeLabel;html=1;align=center;verticalAlign=middle;resizable=0;points=[];fontColor=#808080;fontSize=19;" vertex="1" connectable="0" parent="1">
          <mxGeometry x="900" y="470" as="geometry" />
        </mxCell>
        <mxCell id="5Oj6fqXovqbjUkjtKiVb-122" value="&lt;div style=&quot;font-size: 16px;&quot;&gt;&lt;font style=&quot;font-size: 16px;&quot;&gt;This results in two separate displays being shown; one raw &lt;br&gt;&lt;/font&gt;&lt;/div&gt;&lt;div style=&quot;font-size: 16px;&quot;&gt;&lt;font style=&quot;font-size: 16px;&quot;&gt;image feed, and a second with annotated information&lt;/font&gt;&lt;/div&gt;" style="edgeLabel;html=1;align=center;verticalAlign=middle;resizable=0;points=[];fontColor=#808080;" vertex="1" connectable="0" parent="1">
          <mxGeometry x="900" y="340" as="geometry" />
        </mxCell>
        <mxCell id="5Oj6fqXovqbjUkjtKiVb-123" value="&lt;div style=&quot;font-size: 15px;&quot;&gt;&lt;font style=&quot;font-size: 15px;&quot;&gt;The Webcam Publisher node functions&lt;/font&gt;&lt;/div&gt;&lt;div style=&quot;font-size: 15px;&quot;&gt;&lt;font style=&quot;font-size: 15px;&quot;&gt;identically to the RealSense Publisher node;&lt;/font&gt;&lt;/div&gt;&lt;div style=&quot;font-size: 15px;&quot;&gt;&lt;font style=&quot;font-size: 15px;&quot;&gt;except for standard webcams.&lt;font style=&quot;font-size: 15px;&quot;&gt;&lt;br&gt;&lt;/font&gt;&lt;/font&gt;&lt;/div&gt;" style="edgeLabel;html=1;align=center;verticalAlign=middle;resizable=0;points=[];fontColor=#808080;" vertex="1" connectable="0" parent="1">
          <mxGeometry x="220" y="490" as="geometry" />
        </mxCell>
        <mxCell id="5Oj6fqXovqbjUkjtKiVb-124" value="&lt;div style=&quot;font-size: 19px;&quot;&gt;&lt;font style=&quot;font-size: 19px;&quot;&gt;&lt;font style=&quot;font-size: 19px;&quot;&gt;This process is then reversed when the&lt;/font&gt;&lt;/font&gt;&lt;/div&gt;&lt;div style=&quot;font-size: 19px;&quot;&gt;&lt;font style=&quot;font-size: 19px;&quot;&gt;&lt;font style=&quot;font-size: 19px;&quot;&gt;image reaches the subscriber node(s)&lt;br style=&quot;font-size: 19px;&quot;&gt;&lt;/font&gt;&lt;/font&gt;&lt;/div&gt;" style="edgeLabel;html=1;align=center;verticalAlign=middle;resizable=0;points=[];fontColor=#808080;fontSize=19;" vertex="1" connectable="0" parent="1">
          <mxGeometry x="900" y="540" as="geometry" />
        </mxCell>
      </root>
    </mxGraphModel>
  </diagram>
</mxfile>
